<?xml version="1.0" encoding="UTF-8"?>
<!DOCTYPE svg PUBLIC "-//W3C//DTD SVG 1.1//EN" "http://www.w3.org/Graphics/SVG/1.1/DTD/svg11.dtd">
<!-- Creator: CorelDRAW -->
<svg xmlns="http://www.w3.org/2000/svg" xml:space="preserve" width="25mm" height="25mm" style="shape-rendering:geometricPrecision; text-rendering:geometricPrecision; image-rendering:optimizeQuality; fill-rule:evenodd; clip-rule:evenodd"
viewBox="0 0 2.08275 2.08275"
 xmlns:xlink="http://www.w3.org/1999/xlink">
 <defs>
  <style type="text/css">
   <![CDATA[
    .fil2 {fill:none}
    .fil6 {fill:black}
    .fil5 {fill:black}
    .fil0 {fill:gray}
    .fil1 {fill:#c6c6c6}
    .fil4 {fill:black;fill-rule:nonzero}
    .fil3 {fill:url(#id0)}
   ]]>
  </style>
  <radialGradient id="id0" gradientUnits="userSpaceOnUse" cx="0.883809" cy="0.973051" r="0.824926" fx="0.883809" fy="0.973051">
   <stop offset="0" style="stop-color:white"/>
   <stop offset="0.301961" style="stop-color:#F3F516"/>
   <stop offset="0.588235" style="stop-color:#FCCE00"/>
   <stop offset="1" style="stop-color:#FF9E67"/>
  </radialGradient>
 </defs>
 <g id="Layer_x0020_1">
  <metadata id="CorelCorpID_0Corel-Layer"/>
  <g id="_280012488">
   <rect id="_280272824" class="fil0" width="2.08275" height="2.08275"/>
   <g>
    <rect id="_281586816" class="fil0" x="0.054746" y="0.054746" width="1.97325" height="1.97325"/>
    <rect id="_281586744" class="fil1" x="0.230733" y="0.230733" width="1.69027" height="1.69027"/>
    <g>
     <circle id="_281586672" class="fil2" cx="1.14142" cy="1.17762" r="0.587182"/>
     <circle id="_281586600" class="fil3" cx="1.14521" cy="1.16625" r="0.56824"/>
     <path id="_281586528" class="fil4" d="M1.14142 0.554819l3.33239e-005 0 0 0.000133296c0.172026,8.33098e-006 0.327724,0.0696887 0.440342,0.182315 0.112602,0.112602 0.182274,0.268274 0.18229,0.440276l0.000141627 0 0 7.49789e-005 0 3.33239e-005 -0.000141627 0c-8.33098e-006,0.172026 -0.0696887,0.327724 -0.182315,0.440342 -0.112602,0.112602 -0.268274,0.182274 -0.440276,0.18229l0 0.000141627 -7.49789e-005 0 -3.33239e-005 0 0 -0.000141627c-0.172026,-8.33098e-006 -0.327724,-0.0696887 -0.440342,-0.182315 -0.112593,-0.112602 -0.182265,-0.268274 -0.18229,-0.440276l-0.000133296 0 0 -7.49789e-005 0 -3.33239e-005 0.000133296 0c1.6662e-005,-0.172026 0.0696887,-0.327724 0.182315,-0.440342 0.112602,-0.112602 0.268274,-0.182265 0.440276,-0.18229l0 -0.000133296 7.49789e-005 0zm3.33239e-005 0.0710966l0 0.000141627 -3.33239e-005 0 -7.49789e-005 0 0 -0.000141627c-0.152157,1.6662e-005 -0.290027,0.0618159 -0.389915,0.161696 -0.0998968,0.0998885 -0.161704,0.237791 -0.161713,0.389973l0.000141627 0 0 3.33239e-005 0 7.49789e-005 -0.000141627 0c1.6662e-005,0.152157 0.0618242,0.290035 0.161696,0.389915 0.0998885,0.0998968 0.237791,0.161713 0.389973,0.161713l0 -0.000133296 3.33239e-005 0 7.49789e-005 0 0 0.000133296c0.152157,-1.6662e-005 0.290027,-0.0618076 0.389915,-0.161688 0.0998968,-0.0998968 0.161713,-0.2378 0.161713,-0.389982l-0.000133296 0 0 -3.33239e-005 0 -7.49789e-005 0.000133296 0c-1.6662e-005,-0.152157 -0.0618076,-0.290027 -0.161688,-0.389915 -0.0998968,-0.0998968 -0.2378,-0.161704 -0.389982,-0.161713z"/>
     <path id="_281586456" class="fil5" d="M1.38095 1.32378c0.0122715,0.0143626 0.0190696,0.0300998 0.0190696,0.0466035 0,0.0675393 -0.113451,0.122307 -0.253345,0.122307 -0.139886,0 -0.253337,-0.0547679 -0.253337,-0.122307 0,-0.0165037 0.00679808,-0.0322409 0.0190613,-0.0466035 0.0379726,0.0444291 0.128564,0.0757203 0.234276,0.0757203 0.10572,0 0.196311,-0.0312912 0.234276,-0.0757203z"/>
     <circle id="_281586384" class="fil6" cx="0.946688" cy="1.03934" r="0.105253"/>
     <circle id="_281586312" class="fil6" cx="1.31758" cy="1.03934" r="0.105253"/>
    </g>
   </g>
  </g>
 </g>
</svg>

